<svg xmlns="http://www.w3.org/2000/svg" xmlns:xlink="http://www.w3.org/1999/xlink" width="1080" zoomAndPan="magnify" viewBox="0 0 810 809.999993" height="1080" preserveAspectRatio="xMidYMid meet" version="1.0"><defs><g/><clipPath id="7ab2465aaa"><path d="M 232.789062 167.609375 L 507.574219 167.609375 L 507.574219 527.1875 L 232.789062 527.1875 Z M 232.789062 167.609375 " clip-rule="nonzero"/></clipPath><clipPath id="314bf599d7"><path d="M 271.039062 167.609375 L 469.324219 167.609375 C 490.449219 167.609375 507.574219 184.734375 507.574219 205.859375 L 507.574219 488.875 C 507.574219 509.996094 490.449219 527.125 469.324219 527.125 L 271.039062 527.125 C 249.914062 527.125 232.789062 509.996094 232.789062 488.875 L 232.789062 205.859375 C 232.789062 184.734375 249.914062 167.609375 271.039062 167.609375 Z M 271.039062 167.609375 " clip-rule="nonzero"/></clipPath><clipPath id="82c5747eae"><path d="M 265.890625 203.125 L 474.589844 203.125 L 474.589844 348.304688 L 265.890625 348.304688 Z M 265.890625 203.125 " clip-rule="nonzero"/></clipPath><clipPath id="38a387b9ba"><path d="M 304.140625 203.125 L 436.222656 203.125 C 457.347656 203.125 474.472656 220.25 474.472656 241.375 L 474.472656 310.054688 C 474.472656 331.179688 457.347656 348.304688 436.222656 348.304688 L 304.140625 348.304688 C 283.015625 348.304688 265.890625 331.179688 265.890625 310.054688 L 265.890625 241.375 C 265.890625 220.25 283.015625 203.125 304.140625 203.125 Z M 304.140625 203.125 " clip-rule="nonzero"/></clipPath><clipPath id="965eb08ba3"><path d="M 266.390625 375.695312 L 319.976562 375.695312 L 319.976562 429.695312 L 266.390625 429.695312 Z M 266.390625 375.695312 " clip-rule="nonzero"/></clipPath><clipPath id="a5e8af5277"><path d="M 277.101562 375.902344 L 309.476562 375.902344 C 312.261719 375.902344 314.929688 377.011719 316.898438 378.980469 C 318.871094 380.949219 319.976562 383.617188 319.976562 386.402344 L 319.976562 419.101562 C 319.976562 421.886719 318.871094 424.558594 316.898438 426.527344 C 314.929688 428.496094 312.261719 429.601562 309.476562 429.601562 L 277.101562 429.601562 C 274.316406 429.601562 271.644531 428.496094 269.675781 426.527344 C 267.707031 424.558594 266.601562 421.886719 266.601562 419.101562 L 266.601562 386.402344 C 266.601562 383.617188 267.707031 380.949219 269.675781 378.980469 C 271.644531 377.011719 274.316406 375.902344 277.101562 375.902344 Z M 277.101562 375.902344 " clip-rule="nonzero"/></clipPath><clipPath id="5c55d627eb"><path d="M 295.453125 246.40625 L 319.976562 246.40625 L 319.976562 270.929688 L 295.453125 270.929688 Z M 295.453125 246.40625 " clip-rule="nonzero"/></clipPath><clipPath id="d634bffa3c"><path d="M 307.714844 246.40625 C 300.941406 246.40625 295.453125 251.898438 295.453125 258.667969 C 295.453125 265.441406 300.941406 270.929688 307.714844 270.929688 C 314.484375 270.929688 319.976562 265.441406 319.976562 258.667969 C 319.976562 251.898438 314.484375 246.40625 307.714844 246.40625 Z M 307.714844 246.40625 " clip-rule="nonzero"/></clipPath><clipPath id="1126525bd0"><path d="M 430.007812 246.40625 L 454.53125 246.40625 L 454.53125 270.929688 L 430.007812 270.929688 Z M 430.007812 246.40625 " clip-rule="nonzero"/></clipPath><clipPath id="c40461c361"><path d="M 442.269531 246.40625 C 435.496094 246.40625 430.007812 251.898438 430.007812 258.667969 C 430.007812 265.441406 435.496094 270.929688 442.269531 270.929688 C 449.042969 270.929688 454.53125 265.441406 454.53125 258.667969 C 454.53125 251.898438 449.042969 246.40625 442.269531 246.40625 Z M 442.269531 246.40625 " clip-rule="nonzero"/></clipPath><clipPath id="7ec2a18d2f"><path d="M 343.285156 375.695312 L 396.871094 375.695312 L 396.871094 429.695312 L 343.285156 429.695312 Z M 343.285156 375.695312 " clip-rule="nonzero"/></clipPath><clipPath id="62e37c47f6"><path d="M 353.992188 375.902344 L 386.371094 375.902344 C 389.15625 375.902344 391.824219 377.011719 393.792969 378.980469 C 395.761719 380.949219 396.871094 383.617188 396.871094 386.402344 L 396.871094 419.101562 C 396.871094 421.886719 395.761719 424.558594 393.792969 426.527344 C 391.824219 428.496094 389.15625 429.601562 386.371094 429.601562 L 353.992188 429.601562 C 351.210938 429.601562 348.539062 428.496094 346.570312 426.527344 C 344.601562 424.558594 343.492188 421.886719 343.492188 419.101562 L 343.492188 386.402344 C 343.492188 383.617188 344.601562 380.949219 346.570312 378.980469 C 348.539062 377.011719 351.210938 375.902344 353.992188 375.902344 Z M 353.992188 375.902344 " clip-rule="nonzero"/></clipPath><clipPath id="fec90cb68a"><path d="M 420.179688 375.695312 L 473.765625 375.695312 L 473.765625 429.695312 L 420.179688 429.695312 Z M 420.179688 375.695312 " clip-rule="nonzero"/></clipPath><clipPath id="d43dfc3835"><path d="M 430.886719 375.902344 L 463.265625 375.902344 C 466.046875 375.902344 468.71875 377.011719 470.6875 378.980469 C 472.65625 380.949219 473.765625 383.617188 473.765625 386.402344 L 473.765625 419.101562 C 473.765625 421.886719 472.65625 424.558594 470.6875 426.527344 C 468.71875 428.496094 466.046875 429.601562 463.265625 429.601562 L 430.886719 429.601562 C 428.101562 429.601562 425.433594 428.496094 423.464844 426.527344 C 421.496094 424.558594 420.386719 421.886719 420.386719 419.101562 L 420.386719 386.402344 C 420.386719 383.617188 421.496094 380.949219 423.464844 378.980469 C 425.433594 377.011719 428.101562 375.902344 430.886719 375.902344 Z M 430.886719 375.902344 " clip-rule="nonzero"/></clipPath><clipPath id="ce909accf1"><path d="M 265.679688 438.789062 L 319.265625 438.789062 L 319.265625 492.789062 L 265.679688 492.789062 Z M 265.679688 438.789062 " clip-rule="nonzero"/></clipPath><clipPath id="8d34efaf48"><path d="M 276.390625 438.996094 L 308.765625 438.996094 C 311.550781 438.996094 314.222656 440.101562 316.191406 442.070312 C 318.160156 444.039062 319.265625 446.710938 319.265625 449.496094 L 319.265625 482.195312 C 319.265625 484.980469 318.160156 487.652344 316.191406 489.621094 C 314.222656 491.589844 311.550781 492.695312 308.765625 492.695312 L 276.390625 492.695312 C 273.605469 492.695312 270.933594 491.589844 268.964844 489.621094 C 266.996094 487.652344 265.890625 484.980469 265.890625 482.195312 L 265.890625 449.496094 C 265.890625 446.710938 266.996094 444.039062 268.964844 442.070312 C 270.933594 440.101562 273.605469 438.996094 276.390625 438.996094 Z M 276.390625 438.996094 " clip-rule="nonzero"/></clipPath><clipPath id="a3dc91df70"><path d="M 342.574219 438.789062 L 396.160156 438.789062 L 396.160156 492.789062 L 342.574219 492.789062 Z M 342.574219 438.789062 " clip-rule="nonzero"/></clipPath><clipPath id="fc80ff23d3"><path d="M 353.285156 438.996094 L 385.660156 438.996094 C 388.445312 438.996094 391.117188 440.101562 393.085938 442.070312 C 395.054688 444.039062 396.160156 446.710938 396.160156 449.496094 L 396.160156 482.195312 C 396.160156 484.980469 395.054688 487.652344 393.085938 489.621094 C 391.117188 491.589844 388.445312 492.695312 385.660156 492.695312 L 353.285156 492.695312 C 350.5 492.695312 347.828125 491.589844 345.859375 489.621094 C 343.890625 487.652344 342.785156 484.980469 342.785156 482.195312 L 342.785156 449.496094 C 342.785156 446.710938 343.890625 444.039062 345.859375 442.070312 C 347.828125 440.101562 350.5 438.996094 353.285156 438.996094 Z M 353.285156 438.996094 " clip-rule="nonzero"/></clipPath><clipPath id="21ca919fff"><path d="M 419.46875 438.789062 L 473.054688 438.789062 L 473.054688 492.789062 L 419.46875 492.789062 Z M 419.46875 438.789062 " clip-rule="nonzero"/></clipPath><clipPath id="da7c7ade8f"><path d="M 430.179688 438.996094 L 462.554688 438.996094 C 465.339844 438.996094 468.007812 440.101562 469.980469 442.070312 C 471.949219 444.039062 473.054688 446.710938 473.054688 449.496094 L 473.054688 482.195312 C 473.054688 484.980469 471.949219 487.652344 469.980469 489.621094 C 468.007812 491.589844 465.339844 492.695312 462.554688 492.695312 L 430.179688 492.695312 C 427.394531 492.695312 424.722656 491.589844 422.753906 489.621094 C 420.785156 487.652344 419.679688 484.980469 419.679688 482.195312 L 419.679688 449.496094 C 419.679688 446.710938 420.785156 444.039062 422.753906 442.070312 C 424.722656 440.101562 427.394531 438.996094 430.179688 438.996094 Z M 430.179688 438.996094 " clip-rule="nonzero"/></clipPath><clipPath id="2df16e9052"><path d="M 491.824219 202.386719 L 579.867188 202.386719 L 579.867188 290.429688 L 491.824219 290.429688 Z M 491.824219 202.386719 " clip-rule="nonzero"/></clipPath><clipPath id="98676f84a0"><path d="M 535.847656 202.386719 C 511.53125 202.386719 491.824219 222.09375 491.824219 246.40625 C 491.824219 270.722656 511.53125 290.429688 535.847656 290.429688 C 560.160156 290.429688 579.867188 270.722656 579.867188 246.40625 C 579.867188 222.09375 560.160156 202.386719 535.847656 202.386719 Z M 535.847656 202.386719 " clip-rule="nonzero"/></clipPath><clipPath id="aabdd544f0"><path d="M 569.589844 275.714844 L 636.890625 275.714844 L 636.890625 343.015625 L 569.589844 343.015625 Z M 569.589844 275.714844 " clip-rule="nonzero"/></clipPath><clipPath id="3a94b04372"><path d="M 603.238281 275.714844 C 584.652344 275.714844 569.589844 290.78125 569.589844 309.363281 C 569.589844 327.949219 584.652344 343.015625 603.238281 343.015625 C 621.824219 343.015625 636.890625 327.949219 636.890625 309.363281 C 636.890625 290.78125 621.824219 275.714844 603.238281 275.714844 Z M 603.238281 275.714844 " clip-rule="nonzero"/></clipPath><clipPath id="ec69b5a7ed"><path d="M 502.105469 335.269531 L 569.589844 335.269531 L 569.589844 402.753906 L 502.105469 402.753906 Z M 502.105469 335.269531 " clip-rule="nonzero"/></clipPath><clipPath id="9a557280e2"><path d="M 535.847656 335.269531 C 517.210938 335.269531 502.105469 350.375 502.105469 369.011719 C 502.105469 387.648438 517.210938 402.753906 535.847656 402.753906 C 554.480469 402.753906 569.589844 387.648438 569.589844 369.011719 C 569.589844 350.375 554.480469 335.269531 535.847656 335.269531 Z M 535.847656 335.269531 " clip-rule="nonzero"/></clipPath><clipPath id="f5f25cb939"><path d="M 508.796875 216.835938 L 562.796875 216.835938 L 562.796875 270.835938 L 508.796875 270.835938 Z M 508.796875 216.835938 " clip-rule="nonzero"/></clipPath><clipPath id="47a3f194f8"><path d="M 574.941406 302.855469 L 631.191406 302.855469 L 631.191406 315.605469 L 574.941406 315.605469 Z M 574.941406 302.855469 " clip-rule="nonzero"/></clipPath><clipPath id="1f2291955d"><path d="M 515 348.167969 L 557 348.167969 L 557 390 L 515 390 Z M 515 348.167969 " clip-rule="nonzero"/></clipPath><clipPath id="25f59ebeca"><path d="M 541.292969 415.503906 L 618.484375 415.503906 L 618.484375 492.695312 L 541.292969 492.695312 Z M 541.292969 415.503906 " clip-rule="nonzero"/></clipPath><clipPath id="93d72b1521"><path d="M 579.886719 415.503906 C 558.570312 415.503906 541.292969 432.785156 541.292969 454.097656 C 541.292969 475.414062 558.570312 492.695312 579.886719 492.695312 C 601.203125 492.695312 618.484375 475.414062 618.484375 454.097656 C 618.484375 432.785156 601.203125 415.503906 579.886719 415.503906 Z M 579.886719 415.503906 " clip-rule="nonzero"/></clipPath><clipPath id="9b2587cff5"><path d="M 545.136719 425.183594 L 614.886719 425.183594 L 614.886719 482.933594 L 545.136719 482.933594 Z M 545.136719 425.183594 " clip-rule="nonzero"/></clipPath></defs><g clip-path="url(#7ab2465aaa)"><g clip-path="url(#314bf599d7)"><path fill="#5271ff" d="M 232.789062 167.609375 L 507.574219 167.609375 L 507.574219 527.1875 L 232.789062 527.1875 Z M 232.789062 167.609375 " fill-opacity="1" fill-rule="nonzero"/></g></g><g clip-path="url(#82c5747eae)"><g clip-path="url(#38a387b9ba)"><path fill="#ffffff" d="M 265.890625 203.125 L 474.589844 203.125 L 474.589844 348.304688 L 265.890625 348.304688 Z M 265.890625 203.125 " fill-opacity="1" fill-rule="nonzero"/></g></g><g clip-path="url(#965eb08ba3)"><g clip-path="url(#a5e8af5277)"><path fill="#ff914d" d="M 266.601562 375.902344 L 319.976562 375.902344 L 319.976562 429.695312 L 266.601562 429.695312 Z M 266.601562 375.902344 " fill-opacity="1" fill-rule="nonzero"/></g></g><g clip-path="url(#5c55d627eb)"><g clip-path="url(#d634bffa3c)"><path fill="#5271ff" d="M 295.453125 246.40625 L 319.976562 246.40625 L 319.976562 270.929688 L 295.453125 270.929688 Z M 295.453125 246.40625 " fill-opacity="1" fill-rule="nonzero"/></g></g><g clip-path="url(#1126525bd0)"><g clip-path="url(#c40461c361)"><path fill="#5271ff" d="M 430.007812 246.40625 L 454.53125 246.40625 L 454.53125 270.929688 L 430.007812 270.929688 Z M 430.007812 246.40625 " fill-opacity="1" fill-rule="nonzero"/></g></g><path stroke-linecap="round" transform="matrix(0.748286, 0.0506811, -0.0506811, 0.748286, 313.135329, 289.355045)" fill="none" stroke-linejoin="miter" d="M 5.696243 5.612847 C 51.615422 37.932703 97.531561 37.913218 143.449505 5.548844 " stroke="#5271ff" stroke-width="8" stroke-opacity="1" stroke-miterlimit="4"/><g clip-path="url(#7ec2a18d2f)"><g clip-path="url(#62e37c47f6)"><path fill="#ff914d" d="M 343.492188 375.902344 L 396.871094 375.902344 L 396.871094 429.695312 L 343.492188 429.695312 Z M 343.492188 375.902344 " fill-opacity="1" fill-rule="nonzero"/></g></g><g clip-path="url(#fec90cb68a)"><g clip-path="url(#d43dfc3835)"><path fill="#ff914d" d="M 420.386719 375.902344 L 473.765625 375.902344 L 473.765625 429.695312 L 420.386719 429.695312 Z M 420.386719 375.902344 " fill-opacity="1" fill-rule="nonzero"/></g></g><g clip-path="url(#ce909accf1)"><g clip-path="url(#8d34efaf48)"><path fill="#ff914d" d="M 265.890625 438.996094 L 319.265625 438.996094 L 319.265625 492.789062 L 265.890625 492.789062 Z M 265.890625 438.996094 " fill-opacity="1" fill-rule="nonzero"/></g></g><g clip-path="url(#a3dc91df70)"><g clip-path="url(#fc80ff23d3)"><path fill="#ff914d" d="M 342.785156 438.996094 L 396.160156 438.996094 L 396.160156 492.789062 L 342.785156 492.789062 Z M 342.785156 438.996094 " fill-opacity="1" fill-rule="nonzero"/></g></g><g clip-path="url(#21ca919fff)"><g clip-path="url(#da7c7ade8f)"><path fill="#ff914d" d="M 419.679688 438.996094 L 473.054688 438.996094 L 473.054688 492.789062 L 419.679688 492.789062 Z M 419.679688 438.996094 " fill-opacity="1" fill-rule="nonzero"/></g></g><g clip-path="url(#2df16e9052)"><g clip-path="url(#98676f84a0)"><path fill="#ff914d" d="M 491.824219 202.386719 L 579.867188 202.386719 L 579.867188 290.429688 L 491.824219 290.429688 Z M 491.824219 202.386719 " fill-opacity="1" fill-rule="nonzero"/></g></g><g clip-path="url(#aabdd544f0)"><g clip-path="url(#3a94b04372)"><path fill="#5271ff" d="M 569.589844 275.714844 L 636.890625 275.714844 L 636.890625 343.015625 L 569.589844 343.015625 Z M 569.589844 275.714844 " fill-opacity="1" fill-rule="nonzero"/></g></g><g clip-path="url(#ec69b5a7ed)"><g clip-path="url(#9a557280e2)"><path fill="#ff914d" d="M 502.105469 335.269531 L 569.589844 335.269531 L 569.589844 402.753906 L 502.105469 402.753906 Z M 502.105469 335.269531 " fill-opacity="1" fill-rule="nonzero"/></g></g><g clip-path="url(#f5f25cb939)"><path fill="#ffffff" d="M 557.480469 238.472656 L 541.230469 238.472656 L 541.230469 222.246094 C 541.230469 219.261719 538.808594 216.835938 535.824219 216.835938 C 532.835938 216.835938 530.414062 219.261719 530.414062 222.246094 L 530.414062 238.472656 L 514.210938 238.472656 C 511.222656 238.472656 508.800781 240.894531 508.800781 243.878906 C 508.800781 246.867188 511.222656 249.289062 514.210938 249.289062 L 530.414062 249.289062 L 530.414062 265.515625 C 530.414062 268.503906 532.839844 270.925781 535.824219 270.925781 C 538.808594 270.925781 541.234375 268.503906 541.234375 265.515625 L 541.234375 249.289062 L 557.480469 249.289062 C 560.464844 249.289062 562.890625 246.867188 562.890625 243.878906 C 562.890625 240.894531 560.464844 238.472656 557.480469 238.472656 Z M 557.480469 238.472656 " fill-opacity="1" fill-rule="evenodd"/></g><g clip-path="url(#47a3f194f8)"><path fill="#ffffff" d="M 631.511719 309.363281 C 631.511719 312.882812 628.660156 315.734375 625.140625 315.734375 L 581.332031 315.734375 C 577.8125 315.734375 574.964844 312.882812 574.964844 309.363281 C 574.964844 305.847656 577.8125 302.996094 581.332031 302.996094 L 625.140625 302.996094 C 628.660156 302.996094 631.511719 305.847656 631.511719 309.363281 Z M 631.511719 309.363281 " fill-opacity="1" fill-rule="nonzero"/></g><g clip-path="url(#1f2291955d)"><path fill="#ffffff" d="M 541.671875 369.21875 L 555.269531 355.625 C 556.878906 354.015625 556.878906 351.398438 555.269531 349.789062 C 553.65625 348.175781 551.042969 348.175781 549.433594 349.789062 L 535.835938 363.382812 L 522.238281 349.789062 C 520.628906 348.175781 518.015625 348.175781 516.402344 349.789062 C 514.792969 351.398438 514.792969 354.015625 516.402344 355.625 L 530 369.21875 L 516.371094 382.851562 C 514.757812 384.460938 514.757812 387.074219 516.371094 388.683594 C 517.175781 389.492188 518.234375 389.894531 519.289062 389.894531 C 520.34375 389.894531 521.402344 389.492188 522.207031 388.683594 L 535.835938 375.058594 L 549.429688 388.652344 C 550.234375 389.457031 551.292969 389.863281 552.347656 389.863281 C 553.402344 389.863281 554.457031 389.457031 555.265625 388.652344 C 556.878906 387.042969 556.878906 384.425781 555.265625 382.816406 Z M 541.671875 369.21875 " fill-opacity="1" fill-rule="nonzero"/></g><g clip-path="url(#25f59ebeca)"><g clip-path="url(#93d72b1521)"><path fill="#5271ff" d="M 541.292969 415.503906 L 618.484375 415.503906 L 618.484375 492.695312 L 541.292969 492.695312 Z M 541.292969 415.503906 " fill-opacity="1" fill-rule="nonzero"/></g></g><g clip-path="url(#9b2587cff5)"><path fill="#ffffff" d="M 579.867188 425.394531 C 579.488281 425.394531 579.113281 425.429688 578.746094 425.503906 C 578.375 425.578125 578.015625 425.6875 577.667969 425.832031 C 577.320312 425.976562 576.988281 426.152344 576.675781 426.359375 C 576.363281 426.570312 576.074219 426.808594 575.804688 427.074219 C 575.539062 427.339844 575.300781 427.632812 575.09375 427.945312 C 574.882812 428.257812 574.707031 428.589844 574.5625 428.9375 C 574.417969 429.285156 574.308594 429.644531 574.234375 430.015625 C 574.160156 430.382812 574.125 430.757812 574.125 431.132812 C 574.125 431.511719 574.160156 431.882812 574.234375 432.253906 C 574.308594 432.625 574.417969 432.984375 574.5625 433.332031 C 574.707031 433.679688 574.882812 434.007812 575.09375 434.324219 C 575.300781 434.636719 575.539062 434.925781 575.804688 435.191406 C 576.074219 435.460938 576.363281 435.699219 576.675781 435.90625 C 576.988281 436.117188 577.320312 436.292969 577.667969 436.4375 C 578.015625 436.582031 578.375 436.691406 578.746094 436.765625 C 579.113281 436.835938 579.488281 436.875 579.867188 436.875 C 580.242188 436.875 580.617188 436.835938 580.984375 436.765625 C 581.355469 436.691406 581.714844 436.582031 582.0625 436.4375 C 582.410156 436.292969 582.742188 436.117188 583.054688 435.90625 C 583.367188 435.699219 583.65625 435.460938 583.925781 435.191406 C 584.191406 434.925781 584.429688 434.636719 584.636719 434.324219 C 584.847656 434.007812 585.023438 433.679688 585.167969 433.332031 C 585.3125 432.984375 585.421875 432.625 585.496094 432.253906 C 585.570312 431.882812 585.605469 431.511719 585.605469 431.132812 C 585.605469 430.757812 585.570312 430.382812 585.496094 430.015625 C 585.421875 429.644531 585.3125 429.285156 585.167969 428.9375 C 585.023438 428.589844 584.847656 428.257812 584.636719 427.945312 C 584.429688 427.632812 584.191406 427.339844 583.925781 427.074219 C 583.65625 426.808594 583.367188 426.570312 583.054688 426.359375 C 582.742188 426.152344 582.410156 425.976562 582.0625 425.832031 C 581.714844 425.6875 581.355469 425.578125 580.984375 425.503906 C 580.617188 425.429688 580.242188 425.394531 579.867188 425.394531 Z M 551.164062 448.355469 C 550.785156 448.347656 550.40625 448.382812 550.03125 448.449219 C 549.660156 448.519531 549.296875 448.625 548.941406 448.769531 C 548.589844 448.910156 548.253906 449.085938 547.9375 449.292969 C 547.617188 449.503906 547.324219 449.738281 547.050781 450.007812 C 546.78125 450.273438 546.539062 450.566406 546.328125 450.878906 C 546.113281 451.195312 545.933594 451.527344 545.785156 451.878906 C 545.640625 452.230469 545.53125 452.59375 545.453125 452.964844 C 545.378906 453.339844 545.34375 453.714844 545.34375 454.09375 C 545.34375 454.476562 545.378906 454.851562 545.453125 455.226562 C 545.53125 455.597656 545.640625 455.960938 545.785156 456.3125 C 545.933594 456.660156 546.113281 456.996094 546.328125 457.308594 C 546.539062 457.625 546.78125 457.914062 547.050781 458.183594 C 547.324219 458.449219 547.617188 458.6875 547.9375 458.894531 C 548.253906 459.105469 548.589844 459.28125 548.941406 459.421875 C 549.296875 459.5625 549.660156 459.667969 550.03125 459.738281 C 550.40625 459.808594 550.785156 459.839844 551.164062 459.835938 L 608.566406 459.835938 C 608.945312 459.839844 609.324219 459.808594 609.699219 459.738281 C 610.070312 459.667969 610.433594 459.5625 610.789062 459.421875 C 611.140625 459.28125 611.476562 459.105469 611.792969 458.894531 C 612.113281 458.6875 612.40625 458.449219 612.679688 458.183594 C 612.949219 457.914062 613.191406 457.625 613.402344 457.308594 C 613.617188 456.996094 613.796875 456.660156 613.945312 456.3125 C 614.089844 455.960938 614.203125 455.597656 614.277344 455.226562 C 614.351562 454.851562 614.386719 454.476562 614.386719 454.09375 C 614.386719 453.714844 614.351562 453.339844 614.277344 452.964844 C 614.203125 452.59375 614.089844 452.230469 613.945312 451.878906 C 613.796875 451.527344 613.617188 451.195312 613.402344 450.878906 C 613.191406 450.566406 612.949219 450.273438 612.679688 450.007812 C 612.40625 449.738281 612.113281 449.503906 611.792969 449.292969 C 611.476562 449.085938 611.140625 448.910156 610.789062 448.769531 C 610.433594 448.625 610.070312 448.519531 609.699219 448.449219 C 609.324219 448.382812 608.945312 448.347656 608.566406 448.355469 Z M 579.867188 471.316406 C 579.488281 471.316406 579.113281 471.351562 578.746094 471.425781 C 578.375 471.5 578.015625 471.609375 577.667969 471.753906 C 577.320312 471.898438 576.988281 472.074219 576.675781 472.28125 C 576.363281 472.492188 576.074219 472.730469 575.804688 472.996094 C 575.539062 473.261719 575.300781 473.554688 575.09375 473.867188 C 574.882812 474.179688 574.707031 474.511719 574.5625 474.859375 C 574.417969 475.207031 574.308594 475.566406 574.234375 475.9375 C 574.160156 476.304688 574.125 476.679688 574.125 477.054688 C 574.125 477.433594 574.160156 477.804688 574.234375 478.175781 C 574.308594 478.546875 574.417969 478.90625 574.5625 479.253906 C 574.707031 479.601562 574.882812 479.933594 575.09375 480.246094 C 575.300781 480.558594 575.539062 480.847656 575.804688 481.113281 C 576.074219 481.382812 576.363281 481.621094 576.675781 481.828125 C 576.988281 482.039062 577.320312 482.214844 577.667969 482.359375 C 578.015625 482.503906 578.375 482.613281 578.746094 482.6875 C 579.113281 482.757812 579.488281 482.796875 579.867188 482.796875 C 580.242188 482.796875 580.617188 482.757812 580.984375 482.6875 C 581.355469 482.613281 581.714844 482.503906 582.0625 482.359375 C 582.410156 482.214844 582.742188 482.039062 583.054688 481.828125 C 583.367188 481.621094 583.65625 481.382812 583.925781 481.113281 C 584.191406 480.847656 584.429688 480.558594 584.636719 480.246094 C 584.847656 479.933594 585.023438 479.601562 585.167969 479.253906 C 585.3125 478.90625 585.421875 478.546875 585.496094 478.175781 C 585.570312 477.804688 585.605469 477.433594 585.605469 477.054688 C 585.605469 476.679688 585.570312 476.304688 585.496094 475.9375 C 585.421875 475.566406 585.3125 475.207031 585.167969 474.859375 C 585.023438 474.511719 584.847656 474.179688 584.636719 473.867188 C 584.429688 473.554688 584.191406 473.261719 583.925781 472.996094 C 583.65625 472.730469 583.367188 472.492188 583.054688 472.28125 C 582.742188 472.074219 582.410156 471.898438 582.0625 471.753906 C 581.714844 471.609375 581.355469 471.5 580.984375 471.425781 C 580.617188 471.351562 580.242188 471.316406 579.867188 471.316406 Z M 579.867188 471.316406 " fill-opacity="1" fill-rule="nonzero"/></g><g fill="#ff914d" fill-opacity="1"><g transform="translate(252.836064, 609.923125)"><g><path d="M 47.296875 -26.359375 L 47.296875 -7.484375 C 47.347656 -4.847656 48.054688 -2.941406 49.421875 -1.765625 C 50.796875 -0.585938 52.5625 0 54.71875 0 C 60.664062 0 63.664062 -2.375 63.71875 -7.125 L 63.71875 -38.453125 C 63.71875 -42.140625 62.789062 -44.882812 60.9375 -46.6875 C 59.09375 -48.488281 56.515625 -49.390625 53.203125 -49.390625 C 48.597656 -49.390625 45.40625 -47.660156 43.625 -44.203125 L 33.40625 -23.46875 L 23.765625 -44.5625 C 22.941406 -46.050781 21.941406 -47.238281 20.765625 -48.125 C 19.597656 -49.019531 17.929688 -49.46875 15.765625 -49.46875 C 11.785156 -49.46875 8.953125 -48.53125 7.265625 -46.65625 C 5.585938 -44.78125 4.75 -41.992188 4.75 -38.296875 L 4.75 -6.90625 C 4.75 -4.175781 5.226562 -2.34375 6.1875 -1.40625 C 7.144531 -0.46875 8.679688 0 10.796875 0 C 12.671875 0 14.078125 -0.476562 15.015625 -1.4375 C 15.953125 -2.394531 16.421875 -3.90625 16.421875 -5.96875 L 16.421875 -26.359375 L 24.765625 -11.15625 C 26.441406 -8.320312 27.804688 -6.363281 28.859375 -5.28125 C 29.921875 -4.207031 31.222656 -3.671875 32.765625 -3.671875 C 33.960938 -3.671875 34.992188 -3.992188 35.859375 -4.640625 C 36.722656 -5.285156 37.535156 -6.378906 38.296875 -7.921875 Z M 47.296875 -26.359375 "/></g></g></g><g fill="#ff914d" fill-opacity="1"><g transform="translate(321.152997, 609.923125)"><g><path d="M 25.984375 -23.828125 C 25.171875 -25.222656 24.117188 -25.921875 22.828125 -25.921875 C 21.578125 -25.921875 20.566406 -25.007812 19.796875 -23.1875 C 19.023438 -21.363281 18.640625 -19.273438 18.640625 -16.921875 C 18.640625 -14.710938 19 -12.742188 19.71875 -11.015625 C 20.445312 -9.285156 21.457031 -8.421875 22.75 -8.421875 C 24.09375 -8.421875 25.171875 -9.070312 25.984375 -10.375 Z M 16.203125 0.4375 C 12.410156 0.4375 9.265625 -1.109375 6.765625 -4.203125 C 4.273438 -7.304688 3.03125 -11.546875 3.03125 -16.921875 C 3.03125 -22.390625 4.265625 -26.742188 6.734375 -29.984375 C 9.203125 -33.222656 12.359375 -34.84375 16.203125 -34.84375 C 20.085938 -34.84375 23.6875 -33.476562 27 -30.75 C 28.289062 -33.144531 30.378906 -34.34375 33.265625 -34.34375 C 35.859375 -34.34375 37.875 -33.773438 39.3125 -32.640625 C 40.75 -31.515625 41.46875 -29.441406 41.46875 -26.421875 L 41.46875 -7.703125 C 41.46875 -4.828125 40.867188 -2.820312 39.671875 -1.6875 C 38.472656 -0.5625 36.363281 0 33.34375 0 C 30.164062 0 28.078125 -0.882812 27.078125 -2.65625 C 24.003906 -0.59375 20.378906 0.4375 16.203125 0.4375 Z M 16.203125 0.4375 "/></g></g></g><g fill="#ff914d" fill-opacity="1"><g transform="translate(366.073721, 609.923125)"><g><path d="M 6.90625 -15.40625 L 6.90625 -23.90625 C 5.707031 -23.945312 4.75 -24.148438 4.03125 -24.515625 C 3.3125 -24.878906 2.796875 -25.347656 2.484375 -25.921875 C 2.171875 -26.492188 2.015625 -27.210938 2.015625 -28.078125 C 2.015625 -30.816406 3.671875 -32.304688 6.984375 -32.546875 L 6.984375 -39.234375 C 6.984375 -41.054688 8.300781 -42.703125 10.9375 -44.171875 C 13.582031 -45.640625 16.203125 -46.375 18.796875 -46.375 C 20.378906 -46.375 21.410156 -45.914062 21.890625 -45 C 22.367188 -44.082031 22.609375 -42.710938 22.609375 -40.890625 L 22.6875 -32.609375 L 24.625 -32.609375 C 27.257812 -32.609375 29.066406 -32.257812 30.046875 -31.5625 C 31.035156 -30.875 31.53125 -29.617188 31.53125 -27.796875 C 31.53125 -27.023438 31.382812 -26.375 31.09375 -25.84375 C 30.8125 -25.320312 30.347656 -24.914062 29.703125 -24.625 C 29.054688 -24.332031 28.273438 -24.125 27.359375 -24 C 26.441406 -23.882812 25.3125 -23.828125 23.96875 -23.828125 L 22.6875 -23.828125 L 22.6875 -15.90625 C 22.6875 -15.144531 22.71875 -14.507812 22.78125 -14 C 22.851562 -13.5 22.960938 -13.101562 23.109375 -12.8125 C 23.253906 -12.53125 23.457031 -12.335938 23.71875 -12.234375 C 23.988281 -12.140625 24.316406 -12.09375 24.703125 -12.09375 C 25.273438 -12.09375 25.753906 -12.296875 26.140625 -12.703125 C 26.523438 -13.109375 26.820312 -13.5625 27.03125 -14.0625 C 27.25 -14.570312 27.535156 -15.03125 27.890625 -15.4375 C 28.253906 -15.851562 28.675781 -16.0625 29.15625 -16.0625 C 30.257812 -16.0625 31.109375 -15.796875 31.703125 -15.265625 C 32.304688 -14.734375 32.609375 -14.082031 32.609375 -13.3125 C 32.609375 -12.019531 32.359375 -10.628906 31.859375 -9.140625 C 31.359375 -7.648438 30.625 -6.207031 29.65625 -4.8125 C 28.695312 -3.425781 27.363281 -2.273438 25.65625 -1.359375 C 23.957031 -0.453125 22.050781 0 19.9375 0 C 15.1875 0 11.828125 -1.195312 9.859375 -3.59375 C 7.890625 -6 6.90625 -9.9375 6.90625 -15.40625 Z M 6.90625 -15.40625 "/></g></g></g><g fill="#ff914d" fill-opacity="1"><g transform="translate(402.139878, 609.923125)"><g><path d="M 26.0625 -19.296875 C 26.0625 -22.035156 25.003906 -23.40625 22.890625 -23.40625 C 22.503906 -23.40625 22.15625 -23.351562 21.84375 -23.25 C 21.539062 -23.15625 21.253906 -23.035156 20.984375 -22.890625 C 20.722656 -22.753906 20.484375 -22.550781 20.265625 -22.28125 C 20.046875 -22.019531 19.851562 -21.734375 19.6875 -21.421875 C 19.519531 -21.109375 19.398438 -20.734375 19.328125 -20.296875 C 19.253906 -19.867188 19.21875 -19.390625 19.21875 -18.859375 L 19.21875 -10.9375 C 19.21875 -7.007812 18.570312 -4.21875 17.28125 -2.5625 C 15.988281 -0.90625 13.992188 -0.078125 11.296875 -0.078125 C 8.609375 -0.078125 6.640625 -0.832031 5.390625 -2.34375 C 4.148438 -3.851562 3.53125 -6.53125 3.53125 -10.375 L 3.390625 -41.046875 C 3.390625 -44.015625 4.109375 -46.195312 5.546875 -47.59375 C 6.984375 -48.988281 8.898438 -49.6875 11.296875 -49.6875 C 12.597656 -49.6875 13.664062 -49.597656 14.5 -49.421875 C 15.34375 -49.253906 16.148438 -48.894531 16.921875 -48.34375 C 17.691406 -47.789062 18.265625 -46.960938 18.640625 -45.859375 C 19.023438 -44.753906 19.21875 -43.363281 19.21875 -41.6875 L 19.21875 -31.25 C 22.769531 -33.40625 27.09375 -34.484375 32.1875 -34.484375 C 34.488281 -34.484375 36.332031 -33.894531 37.71875 -32.71875 C 39.113281 -31.539062 40.144531 -29.679688 40.8125 -27.140625 C 41.488281 -24.597656 41.828125 -21.265625 41.828125 -17.140625 C 41.828125 -14.160156 41.753906 -11.722656 41.609375 -9.828125 C 41.472656 -7.929688 41.25 -6.296875 40.9375 -4.921875 C 40.625 -3.554688 40.128906 -2.535156 39.453125 -1.859375 C 38.785156 -1.191406 38.003906 -0.710938 37.109375 -0.421875 C 36.222656 -0.140625 35.085938 0 33.703125 0 C 31.003906 0 29.066406 -0.488281 27.890625 -1.46875 C 26.722656 -2.457031 26.140625 -3.957031 26.140625 -5.96875 Z M 26.0625 -19.296875 "/></g></g></g><g fill="#000000" fill-opacity="1"><g transform="translate(447.06262, 609.923125)"><g/></g></g><g fill="#5271ff" fill-opacity="1"><g transform="translate(466.504022, 609.923125)"><g><path d="M 35.625 -17.5 C 36.113281 -19.5625 36.359375 -21.828125 36.359375 -24.296875 C 36.359375 -26.773438 36.101562 -29.101562 35.59375 -31.28125 C 35.09375 -33.46875 34.265625 -35.316406 33.109375 -36.828125 C 31.960938 -38.335938 30.597656 -39.09375 29.015625 -39.09375 C 27.429688 -39.09375 26.050781 -38.320312 24.875 -36.78125 C 23.695312 -35.25 22.832031 -33.390625 22.28125 -31.203125 C 21.726562 -29.023438 21.453125 -26.710938 21.453125 -24.265625 C 21.453125 -22.867188 21.546875 -21.5 21.734375 -20.15625 C 21.929688 -18.8125 22.234375 -17.523438 22.640625 -16.296875 C 23.046875 -15.078125 23.535156 -14.007812 24.109375 -13.09375 C 24.691406 -12.1875 25.398438 -11.457031 26.234375 -10.90625 C 27.078125 -10.351562 28.003906 -10.078125 29.015625 -10.078125 C 30.640625 -10.078125 32.023438 -10.796875 33.171875 -12.234375 C 34.328125 -13.679688 35.144531 -15.4375 35.625 -17.5 Z M 48.15625 3.390625 C 50.03125 3.484375 51.421875 4.054688 52.328125 5.109375 C 53.242188 6.171875 53.703125 7.945312 53.703125 10.4375 C 53.703125 13.320312 52.929688 15.300781 51.390625 16.375 C 49.859375 17.457031 47.703125 18 44.921875 18 C 42.140625 18 39.507812 17.601562 37.03125 16.8125 C 34.5625 16.019531 32.640625 15.164062 31.265625 14.25 C 29.898438 13.34375 28.691406 12.335938 27.640625 11.234375 C 26.921875 10.515625 26.257812 9.585938 25.65625 8.453125 C 25.0625 7.328125 24.546875 6.019531 24.109375 4.53125 C 23.679688 3.039062 23.421875 1.503906 23.328125 -0.078125 C 17.460938 -1.179688 12.71875 -3.84375 9.09375 -8.0625 C 5.476562 -12.289062 3.671875 -17.691406 3.671875 -24.265625 C 3.671875 -32.085938 6.03125 -38.28125 10.75 -42.84375 C 15.476562 -47.40625 21.566406 -49.6875 29.015625 -49.6875 C 36.398438 -49.6875 42.429688 -47.40625 47.109375 -42.84375 C 51.796875 -38.28125 54.140625 -32.085938 54.140625 -24.265625 C 54.140625 -17.972656 52.492188 -12.75 49.203125 -8.59375 C 45.921875 -4.445312 41.566406 -1.703125 36.140625 -0.359375 C 38.109375 1.796875 42.113281 3.046875 48.15625 3.390625 Z M 48.15625 3.390625 "/></g></g></g><g fill="#5271ff" fill-opacity="1"><g transform="translate(524.454634, 609.923125)"><g><path d="M 19 -15.1875 C 19 -12.457031 20.054688 -11.09375 22.171875 -11.09375 C 22.890625 -11.09375 23.523438 -11.316406 24.078125 -11.765625 C 24.628906 -12.222656 25.046875 -12.859375 25.328125 -13.671875 C 25.617188 -14.492188 25.765625 -15.429688 25.765625 -16.484375 L 25.765625 -26.140625 C 25.765625 -27.765625 26.050781 -29.1875 26.625 -30.40625 C 27.207031 -31.632812 28.050781 -32.582031 29.15625 -33.25 C 30.257812 -33.925781 31.554688 -34.265625 33.046875 -34.265625 C 35.640625 -34.265625 37.65625 -33.703125 39.09375 -32.578125 C 40.53125 -31.453125 41.25 -29.378906 41.25 -26.359375 L 41.25 -7.625 C 41.25 -4.695312 40.648438 -2.679688 39.453125 -1.578125 C 38.253906 -0.472656 36.140625 0.078125 33.109375 0.078125 C 31.816406 0.078125 30.710938 -0.0507812 29.796875 -0.3125 C 28.890625 -0.582031 28.160156 -0.976562 27.609375 -1.5 C 27.054688 -2.03125 26.632812 -2.726562 26.34375 -3.59375 C 24.375 -2.300781 22.296875 -1.390625 20.109375 -0.859375 C 17.929688 -0.335938 15.5 -0.078125 12.8125 -0.078125 C 9.40625 -0.078125 6.957031 -1.40625 5.46875 -4.0625 C 3.976562 -6.726562 3.234375 -11.109375 3.234375 -17.203125 C 3.234375 -20.234375 3.304688 -22.695312 3.453125 -24.59375 C 3.597656 -26.488281 3.828125 -28.117188 4.140625 -29.484375 C 4.453125 -30.847656 4.929688 -31.863281 5.578125 -32.53125 C 6.222656 -33.207031 6.988281 -33.691406 7.875 -33.984375 C 8.757812 -34.273438 9.925781 -34.421875 11.375 -34.421875 C 14.0625 -34.421875 15.992188 -33.914062 17.171875 -32.90625 C 18.347656 -31.894531 18.9375 -30.382812 18.9375 -28.375 Z M 19 -15.1875 "/></g></g></g><g fill="#5271ff" fill-opacity="1"><g transform="translate(569.447342, 609.923125)"><g><path d="M 18.71875 -7.703125 C 18.71875 -4.828125 18.117188 -2.820312 16.921875 -1.6875 C 15.722656 -0.5625 13.609375 0 10.578125 0 C 7.753906 0 5.820312 -0.65625 4.78125 -1.96875 C 3.75 -3.289062 3.234375 -5.46875 3.234375 -8.5 L 3.234375 -26.203125 C 3.234375 -28.648438 3.894531 -30.617188 5.21875 -32.109375 C 6.539062 -33.597656 8.304688 -34.34375 10.515625 -34.34375 C 13.109375 -34.34375 15.125 -33.773438 16.5625 -32.640625 C 18 -31.515625 18.71875 -29.441406 18.71875 -26.421875 Z M 3.09375 -44.359375 C 3.09375 -42.429688 3.835938 -41.035156 5.328125 -40.171875 C 6.816406 -39.304688 8.6875 -38.875 10.9375 -38.875 C 13.488281 -38.875 15.4375 -39.28125 16.78125 -40.09375 C 18.125 -40.914062 18.796875 -42.335938 18.796875 -44.359375 C 18.796875 -48.003906 16.175781 -49.828125 10.9375 -49.828125 C 8.445312 -49.828125 6.515625 -49.320312 5.140625 -48.3125 C 3.773438 -47.300781 3.09375 -45.984375 3.09375 -44.359375 Z M 3.09375 -44.359375 "/></g></g></g><g fill="#5271ff" fill-opacity="1"><g transform="translate(591.403781, 609.923125)"><g><path d="M 32.46875 -9.078125 C 33.851562 -9.078125 34.929688 -8.882812 35.703125 -8.5 C 36.472656 -8.113281 37 -7.5625 37.28125 -6.84375 C 37.570312 -6.125 37.71875 -5.140625 37.71875 -3.890625 C 37.71875 -2.304688 37.175781 -1.257812 36.09375 -0.75 C 35.019531 -0.25 33.113281 0 30.375 0 L 9.140625 0 C 7.503906 0 6 -0.5625 4.625 -1.6875 C 3.257812 -2.820312 2.578125 -4.300781 2.578125 -6.125 C 2.578125 -8.132812 2.84375 -9.703125 3.375 -10.828125 C 3.90625 -11.960938 5.109375 -13.46875 6.984375 -15.34375 L 16.40625 -25.265625 L 11.15625 -25.265625 C 8.5625 -25.265625 6.6875 -25.625 5.53125 -26.34375 C 4.382812 -27.070312 3.8125 -28.25 3.8125 -29.875 C 3.8125 -31.65625 4.21875 -32.84375 5.03125 -33.4375 C 5.851562 -34.039062 7.554688 -34.34375 10.140625 -34.34375 L 32.03125 -34.34375 C 33.8125 -34.34375 35.21875 -33.847656 36.25 -32.859375 C 37.28125 -31.878906 37.796875 -30.523438 37.796875 -28.796875 C 37.796875 -27.171875 37.578125 -25.925781 37.140625 -25.0625 C 36.710938 -24.195312 35.585938 -22.726562 33.765625 -20.65625 L 22.890625 -9 Z M 32.46875 -9.078125 "/></g></g></g></svg>